<svg viewBox="0 0 230 157" fill="none" xmlns="http://www.w3.org/2000/svg">
<g id="Frame">
<g id="Background complete">
<path id="Vector" d="M157.763 74.8166C157.498 74.6205 157.183 74.5058 156.854 74.4864C156.526 74.467 156.199 74.5436 155.914 74.7071C155.51 73.9559 154.835 73.3901 154.028 73.1274C153.221 72.8646 152.345 72.9251 151.581 73.2963C151.385 72.4657 150.913 71.7271 150.245 71.202C149.576 70.6769 148.75 70.3965 147.902 70.407C147.054 70.4175 146.234 70.7183 145.579 71.2598C144.923 71.8013 144.47 72.5513 144.294 73.3864C144.273 73.6548 144.176 73.9116 144.016 74.1273C143.712 74.4494 143.206 74.3367 142.774 74.3012C142.091 74.2649 141.415 74.4595 140.854 74.8539C140.293 75.2484 139.878 75.8202 139.677 76.4787L158.403 76.4078C158.471 76.1085 158.446 75.7955 158.331 75.511C158.217 75.2265 158.019 74.9841 157.763 74.8166Z" fill="#333D48"/>
<path id="Vector_2" d="M63.1008 20.7543C62.678 20.4435 62.1753 20.2619 61.6527 20.231C61.13 20.2002 60.6096 20.3214 60.1536 20.5803C58.9568 18.1484 55.6256 17.0758 53.248 18.3578C52.9069 17.0506 52.1488 15.8923 51.0903 15.0608C50.0318 14.2293 48.7314 13.7705 47.3888 13.7549C46.0454 13.8012 44.7542 14.2902 43.7137 15.1468C42.6731 16.0034 41.9406 17.1801 41.6288 18.4963C41.5392 18.915 41.4816 19.3756 41.184 19.6816C40.7008 20.1777 39.904 20.0038 39.2064 19.9554C38.1188 19.9001 37.0439 20.2111 36.1515 20.8394C35.259 21.4676 34.6 22.3772 34.2784 23.4245L64.1248 23.315C64.384 22.2972 63.936 21.3888 63.1008 20.7543Z" fill="#333D48"/>
<path id="Vector_3" d="M71.1583 62.754C70.9239 62.5813 70.6449 62.4803 70.3549 62.4632C70.0649 62.4461 69.7761 62.5135 69.5231 62.6574C69.1653 61.9923 68.5657 61.4925 67.8498 61.2625C67.134 61.0325 66.3576 61.0903 65.6831 61.4237C65.5107 60.6901 65.0951 60.0376 64.505 59.5734C63.9148 59.1093 63.1853 58.8614 62.4364 58.8704C61.6875 58.8794 60.964 59.1448 60.3851 59.623C59.8061 60.1011 59.4062 60.7635 59.2511 61.501C59.2274 61.734 59.1423 61.9564 59.0047 62.1452C58.7359 62.4223 58.2879 62.3288 57.9071 62.2999C57.3022 62.2684 56.7043 62.4416 56.2084 62.7918C55.7126 63.1421 55.3475 63.6492 55.1711 64.2325L71.7119 64.1713C71.7754 63.9064 71.7562 63.6283 71.6572 63.3748C71.5582 63.1212 71.384 62.9045 71.1583 62.754Z" fill="#333D48"/>
<path id="Vector_4" d="M37.6157 47.1826C37.0637 46.7968 36.4076 46.5713 35.7255 46.5329C35.0434 46.4945 34.3642 46.645 33.769 46.9663C32.9272 45.4773 31.5166 44.3582 29.8327 43.8433C28.1488 43.3284 26.3222 43.4578 24.7356 44.2042C24.3257 42.5638 23.3458 41.1057 21.9567 40.0692C20.5676 39.0328 18.8519 38.4796 17.0913 38.5006C15.3307 38.5215 13.6299 39.1154 12.2681 40.1846C10.9063 41.2538 9.96451 42.7348 9.5973 44.3845C9.55047 44.9082 9.34947 45.4083 9.01766 45.8269C8.38533 46.4471 7.33897 46.2379 6.43563 46.173C5.01262 46.1026 3.60593 46.4904 2.43957 47.2745C1.2732 48.0586 0.414212 49.1941 -0.000610352 50.5L38.9104 50.363C39.062 49.7697 39.0191 49.146 38.7874 48.5769C38.5557 48.0078 38.1466 47.521 37.6157 47.1826Z" fill="#333D48"/>
<path id="Vector_5" d="M169.453 50.4782C169.219 50.3061 168.94 50.2055 168.651 50.1884C168.362 50.1713 168.073 50.2383 167.821 50.3816C167.462 49.7171 166.863 49.2178 166.147 48.9879C165.432 48.758 164.655 48.8153 163.981 49.1479C163.807 48.4152 163.39 47.7639 162.799 47.301C162.209 46.8381 161.48 46.591 160.731 46.6004C159.983 46.6097 159.26 46.875 158.681 47.3525C158.102 47.8301 157.702 48.4916 157.546 49.2284C157.526 49.4623 157.44 49.6857 157.299 49.8726C157.034 50.1496 156.586 50.0562 156.205 50.0272C155.599 49.9956 155.001 50.1687 154.505 50.5189C154.008 50.8691 153.643 51.3763 153.466 51.9599L170.006 51.9019C170.071 51.6361 170.053 51.3566 169.954 51.1017C169.855 50.8469 169.68 50.6291 169.453 50.4782Z" fill="#F0F0F0"/>
<path id="Vector_6" d="M184.638 27.3456C184.185 27.0012 183.646 26.7999 183.086 26.7657C182.526 26.7316 181.968 26.8662 181.479 27.1533C180.789 25.839 179.639 24.8508 178.268 24.3932C176.897 23.9356 175.409 24.0437 174.112 24.695C173.778 23.2313 172.975 21.9295 171.835 21.0037C170.695 20.0779 169.286 19.5834 167.839 19.6016C166.393 19.6197 164.996 20.1494 163.877 21.1036C162.759 22.0577 161.986 23.3793 161.687 24.8509C161.65 25.3252 161.485 25.7791 161.212 26.1606C160.712 26.6803 159.832 26.5244 159.093 26.4621C157.927 26.3997 156.775 26.7429 155.818 27.4376C154.862 28.1322 154.155 29.1386 153.81 30.2977L185.743 30.1782C185.862 29.6452 185.821 29.0868 185.623 28.5796C185.425 28.0725 185.081 27.6414 184.638 27.3456Z" fill="#333D48"/>
</g>
<path id="Vector_7" d="M228.616 69.1826C228.064 68.7968 227.408 68.5713 226.726 68.5329C226.044 68.4945 225.365 68.645 224.77 68.9663C223.928 67.4773 222.517 66.3582 220.833 65.8433C219.149 65.3284 217.323 65.4578 215.736 66.2042C215.326 64.5638 214.346 63.1057 212.957 62.0692C211.568 61.0328 209.852 60.4796 208.092 60.5006C206.331 60.5215 204.631 61.1154 203.269 62.1846C201.907 63.2538 200.965 64.7348 200.598 66.3845C200.551 66.9082 200.35 67.4083 200.018 67.8269C199.386 68.4471 198.34 68.2379 197.436 68.173C196.013 68.1026 194.607 68.4904 193.44 69.2745C192.274 70.0586 191.415 71.1941 191 72.5L229.911 72.363C230.063 71.7697 230.02 71.146 229.788 70.5769C229.556 70.0078 229.147 69.521 228.616 69.1826Z" fill="#333D48"/>
<g id="Alien Spaceship">
<path id="Vector_8" opacity="0.3" d="M91.6391 47.2955L42.9517 139.883C42.9517 139.883 49.9993 155 87.4993 156C124.999 157 129.499 143.5 129.499 143.5L130.956 57.1078" fill="#404B59"/>
<path id="Vector_9" d="M87.6941 62.9545L72.7771 92.6981" stroke="#28313D" stroke-width="0.5" stroke-linecap="round" stroke-linejoin="round"/>
<path id="Vector_10" d="M87.9151 62.5372C88.1548 62.0892 87.95 62.4762 88.1874 62.0244" stroke="#28313D" stroke-width="0.5" stroke-linecap="round" stroke-linejoin="round"/>
<path id="Vector_11" d="M105.039 83.6928L98.0741 103.505" stroke="#28313D" stroke-width="0.5" stroke-linecap="round" stroke-linejoin="round"/>
<path id="Vector_12" d="M103.89 93.7831C105.934 87.8764 107.98 81.9702 110.029 76.0645" stroke="#28313D" stroke-width="0.5" stroke-linecap="round" stroke-linejoin="round"/>
<path id="Vector_13" d="M119.885 16.0871C105.702 12.5478 91.6095 20.1536 88.4112 33.0777L139.79 45.8985C142.988 32.9745 134.081 19.6295 119.885 16.0871Z" fill="#28323D"/>
<path id="Vector_14" d="M119.89 16.0814L107.186 22.8078L115.79 24.3714L124.791 17.7754C124.791 17.7754 121.545 16.4446 119.89 16.0814Z" fill="#3C4552"/>
<path id="Vector_15" d="M111.124 51.5247C141.558 59.1171 167.707 59.3062 169.529 51.9471C171.35 44.5879 148.155 32.4672 117.721 24.8748C87.2864 17.2823 61.1377 17.0932 59.3161 24.4524C57.4944 31.8116 80.6896 43.9323 111.124 51.5247Z" fill="#28313D"/>
<path id="Vector_16" opacity="0.3" d="M111.124 51.5247C141.558 59.1171 167.707 59.3062 169.529 51.9471C171.35 44.5879 148.155 32.4672 117.721 24.8748C87.2864 17.2823 61.1377 17.0932 59.3161 24.4524C57.4944 31.8116 80.6896 43.9323 111.124 51.5247Z" fill="black"/>
<path id="Vector_17" d="M111.612 49.6809C129.509 54.1451 144.654 55.1968 145.438 52.0299C146.222 48.8631 132.349 42.6768 114.451 38.2126C96.5531 33.7484 81.4086 32.6967 80.6246 35.8635C79.8405 39.0304 93.7139 45.2166 111.612 49.6809Z" fill="#28313D"/>
<path id="Vector_18" d="M80.611 36.3576L83.6522 44.6789L138.887 58.4556L145.341 52.4299L113.193 40.7063L80.611 36.3576Z" fill="#28313D"/>
<path id="Vector_19" d="M109.9 56.4536C125.296 60.294 138.412 60.8397 139.196 57.6725C139.98 54.5054 128.135 48.8247 112.74 44.9843C97.3444 41.144 84.2284 40.5983 83.4444 43.7654C82.6603 46.9326 94.505 52.6133 109.9 56.4536Z" fill="#28313D"/>
<path id="Vector_20" opacity="0.3" d="M109.9 56.4536C125.296 60.294 138.412 60.8397 139.196 57.6725C139.98 54.5054 128.135 48.8247 112.74 44.9843C97.3444 41.144 84.2284 40.5983 83.4444 43.7654C82.6603 46.9326 94.505 52.6133 109.9 56.4536Z" fill="black"/>
<path id="Vector_21" opacity="0.3" d="M110.072 55.7582C122.289 58.8056 132.697 59.2383 133.32 56.7245C133.942 54.2108 124.543 49.7026 112.326 46.6551C100.109 43.6077 89.7011 43.175 89.0788 45.6887C88.4565 48.2025 97.8557 52.7107 110.072 55.7582Z" fill="#0E1D2C"/>
<path id="Vector_22" d="M90.7279 44.481L91.7246 47.954L130.854 57.2525L132.43 54.8818C128.927 50.9428 103.019 41.7472 90.7279 44.481Z" fill="#28313D"/>
<path id="Vector_23" d="M110.427 55.7781C121.28 58.4852 130.477 59.0683 130.969 57.0806C131.461 55.0928 123.062 51.2869 112.209 48.5798C101.356 45.8728 92.1589 45.2896 91.6668 47.2774C91.1747 49.2651 99.5738 53.071 110.427 55.7781Z" fill="#28313D"/>
<path id="Vector_24" opacity="0.3" d="M110.427 55.7781C121.28 58.4852 130.477 59.0683 130.969 57.0806C131.461 55.0928 123.062 51.2869 112.209 48.5798C101.356 45.8728 92.1589 45.2896 91.6668 47.2774C91.1747 49.2651 99.5738 53.071 110.427 55.7781Z" fill="#3F4854"/>
<g id="Group" opacity="0.3">
<path id="Vector_25" d="M117.71 24.8711C87.2723 17.2778 61.1326 17.0867 59.3125 24.4398C59.0808 25.3757 59.2591 26.4138 59.8186 27.4974C63.7741 22.522 71.624 21.8768 78.2352 21.8931C103.256 21.9808 128.656 28.3172 151.32 38.9396C158.213 42.1729 165.281 46.2714 169.289 52.6074C169.392 52.3944 169.472 52.1714 169.53 51.942C171.348 44.5983 148.148 32.4643 117.71 24.8711Z" fill="#476888"/>
</g>
<path id="Vector_26" opacity="0.3" d="M80.6314 35.8716L62.3455 25.2227L80.8475 35.4382L80.6314 35.8716Z" fill="#0E1D2C"/>
<path id="Vector_27" opacity="0.3" d="M94.2275 22.7695L95.4113 34.5891L96.3212 34.7L94.2275 22.7695Z" fill="#0E1D2C"/>
<path id="Vector_28" opacity="0.3" d="M129.517 42.6737L134.158 31.7711L130.436 42.976L129.517 42.6737Z" fill="#0E1D2C"/>
<path id="Vector_29" opacity="0.3" d="M145.339 52.4117L166.473 48.9875L145.253 50.9875C145.253 50.9875 146.125 51.676 145.339 52.4117Z" fill="#0E1D2C"/>
<path id="Vector_30" d="M117.729 24.8538L125.925 18.3138L127.45 19.1388L119.499 25.3387L117.729 24.8538Z" fill="#3C4552"/>
<path id="Vector_31" d="M83.6704 31.0069C84.547 31.2255 85.3068 31.2043 85.3674 30.9595C85.428 30.7146 84.7665 30.3388 83.8899 30.1201C83.0133 29.9014 82.2536 29.9226 82.193 30.1675C82.1324 30.4124 82.7939 30.7882 83.6704 31.0069Z" fill="#3C4552"/>
<path id="Vector_32" d="M115.752 35.8694C115.692 36.113 114.931 36.1353 114.055 35.9168C113.179 35.6983 112.518 35.321 112.578 35.0775C112.638 34.8339 113.398 34.8147 114.274 35.0332C115.15 35.2517 115.812 35.6259 115.752 35.8694Z" fill="#3C4552"/>
<path id="Vector_33" d="M148.528 56.4373C148.468 56.6808 147.707 56.7032 146.831 56.4847C145.955 56.2662 145.294 55.8889 145.354 55.6453C145.414 55.4018 146.174 55.3825 147.05 55.6011C147.926 55.8196 148.589 56.1937 148.528 56.4373Z" fill="#3C4552"/>
<path id="Vector_34" d="M143.752 45.8934C143.637 46.1167 142.89 45.9635 142.09 45.5482C141.289 45.1328 140.724 44.6172 140.838 44.3938C140.953 44.1704 141.696 44.326 142.501 44.739C143.306 45.152 143.864 45.6692 143.752 45.8934Z" fill="#3C4552"/>
<path id="Vector_35" d="M79.8971 38.8497C79.8361 39.0963 79.0761 39.1156 78.2002 38.8971C77.3243 38.6786 76.6586 38.3036 76.7196 38.0569C76.7807 37.8103 77.5399 37.7942 78.4189 38.0135C79.2979 38.2328 79.9574 38.6061 79.8971 38.8497Z" fill="#3C4552"/>
<path id="Vector_36" d="M97.5727 17.8255C101.232 15.5413 105.121 13.7392 109.35 13.5539" stroke="#28313D" stroke-width="0.5" stroke-miterlimit="10"/>
<path id="Vector_37" d="M110.418 13.5101L110.93 13.5054" stroke="#28313D" stroke-width="0.5" stroke-miterlimit="10"/>
</g>
</g>
</svg>
