<svg width="24" height="25" viewBox="0 0 24 25" fill="none" xmlns="http://www.w3.org/2000/svg">
<g id="trash-2/default">
<path id="Shape" d="M3 6.5H5H21" stroke="#EB5757" stroke-width="2" stroke-linecap="round" stroke-linejoin="round"/>
<path id="Shape_2" d="M20 6.5C20 5.94772 19.5523 5.5 19 5.5C18.4477 5.5 18 5.94772 18 6.5H20ZM6 6.5C6 5.94772 5.55228 5.5 5 5.5C4.44772 5.5 4 5.94772 4 6.5H6ZM7 6.5C7 7.05228 7.44772 7.5 8 7.5C8.55228 7.5 9 7.05228 9 6.5H7ZM15 6.5C15 7.05228 15.4477 7.5 16 7.5C16.5523 7.5 17 7.05228 17 6.5H15ZM18 6.5V20.5H20V6.5H18ZM18 20.5C18 21.0523 17.5523 21.5 17 21.5V23.5C18.6569 23.5 20 22.1569 20 20.5H18ZM17 21.5H7V23.5H17V21.5ZM7 21.5C6.44772 21.5 6 21.0523 6 20.5H4C4 22.1569 5.34315 23.5 7 23.5V21.5ZM6 20.5V6.5H4V20.5H6ZM9 6.5V4.5H7V6.5H9ZM9 4.5C9 3.94772 9.44772 3.5 10 3.5V1.5C8.34315 1.5 7 2.84315 7 4.5H9ZM10 3.5H14V1.5H10V3.5ZM14 3.5C14.5523 3.5 15 3.94772 15 4.5H17C17 2.84315 15.6569 1.5 14 1.5V3.5ZM15 4.5V6.5H17V4.5H15Z" fill="#EB5757"/>
<path id="Shape_3" d="M10 11.5V17.5" stroke="#EB5757" stroke-width="2" stroke-linecap="round" stroke-linejoin="round"/>
<path id="Shape_4" d="M14 11.5V17.5" stroke="#EB5757" stroke-width="2" stroke-linecap="round" stroke-linejoin="round"/>
</g>
</svg>
