<svg width="20" height="20" viewBox="0 0 20 20" fill="none" xmlns="http://www.w3.org/2000/svg">
<path id="shape (Stroke)" fill-rule="evenodd" clip-rule="evenodd" d="M4.66279 0.283445C5.04072 0.661372 5.04072 1.27411 4.66279 1.65204L1.65204 4.66279C1.27411 5.04072 0.661372 5.04072 0.283445 4.66279C-0.0944816 4.28487 -0.0944817 3.67212 0.283445 3.2942L3.2942 0.283445C3.67212 -0.0944816 4.28486 -0.0944817 4.66279 0.283445ZM15.3372 0.283445C15.7151 -0.0944816 16.3279 -0.0944815 16.7058 0.283445L19.7166 3.2942C20.0945 3.67212 20.0945 4.28487 19.7166 4.66279C19.3386 5.04072 18.7259 5.04072 18.348 4.66279L15.3372 1.65204C14.9593 1.27411 14.9593 0.661372 15.3372 0.283445ZM10 3.94265C6.10035 3.94265 2.93907 7.10394 2.93907 11.0036C2.93907 14.9032 6.10035 18.0645 10 18.0645C13.8996 18.0645 17.0609 14.9032 17.0609 11.0036C17.0609 7.10394 13.8996 3.94265 10 3.94265ZM1.00358 11.0036C1.00358 6.035 5.03142 2.00717 10 2.00717C14.9686 2.00717 18.9964 6.035 18.9964 11.0036C18.9964 15.9722 14.9686 20 10 20C5.03142 20 1.00358 15.9722 1.00358 11.0036ZM10 6.02151C10.5345 6.02151 10.9677 6.45478 10.9677 6.98925V10.6027L12.6915 12.3265C13.0694 12.7044 13.0694 13.3171 12.6915 13.695C12.3135 14.073 11.7008 14.073 11.3229 13.695L9.3157 11.6879C9.13422 11.5064 9.03226 11.2602 9.03226 11.0036V6.98925C9.03226 6.45478 9.46553 6.02151 10 6.02151Z" fill="#98A3B0"/>
</svg>
