<svg width="32" height="32" viewBox="0 0 32 32" fill="none" xmlns="http://www.w3.org/2000/svg">
<path d="M7 7H24V25H7V7Z" fill="#EFEFEF"/>
<path fill-rule="evenodd" clip-rule="evenodd" d="M2.66666 16C2.66666 9.71467 2.66666 6.572 4.61866 4.61867C6.57333 2.66667 9.71466 2.66667 16 2.66667C22.2853 2.66667 25.428 2.66667 27.38 4.61867C29.3333 6.57333 29.3333 9.71467 29.3333 16C29.3333 22.2853 29.3333 25.428 27.38 27.38C25.4293 29.3333 22.2853 29.3333 16 29.3333C9.71466 29.3333 6.572 29.3333 4.61866 27.38C2.66666 25.4293 2.66666 22.2853 2.66666 16ZM16 23.6667C16.2652 23.6667 16.5196 23.5613 16.7071 23.3738C16.8946 23.1862 17 22.9319 17 22.6667V15.7467L19.2933 18.04C19.3849 18.1382 19.4953 18.2171 19.6179 18.2717C19.7406 18.3264 19.873 18.3558 20.0073 18.3581C20.1416 18.3605 20.2749 18.3358 20.3995 18.2855C20.524 18.2352 20.6371 18.1603 20.732 18.0654C20.827 17.9704 20.9019 17.8573 20.9522 17.7328C21.0025 17.6083 21.0272 17.4749 21.0248 17.3406C21.0224 17.2064 20.993 17.0739 20.9384 16.9513C20.8837 16.8286 20.8049 16.7182 20.7067 16.6267L16.7067 12.6267C16.5192 12.4394 16.265 12.3342 16 12.3342C15.735 12.3342 15.4808 12.4394 15.2933 12.6267L11.2933 16.6267C11.1951 16.7182 11.1163 16.8286 11.0616 16.9513C11.007 17.0739 10.9776 17.2064 10.9752 17.3406C10.9728 17.4749 10.9975 17.6083 11.0478 17.7328C11.0981 17.8573 11.173 17.9704 11.2679 18.0654C11.3629 18.1603 11.476 18.2352 11.6005 18.2855C11.7251 18.3358 11.8584 18.3605 11.9927 18.3581C12.127 18.3558 12.2594 18.3264 12.382 18.2717C12.5047 18.2171 12.6151 18.1382 12.7067 18.04L15 15.7467V22.6667C15 23.2187 15.448 23.6667 16 23.6667ZM10.6667 10.3333C10.4014 10.3333 10.1471 10.228 9.95956 10.0404C9.77202 9.8529 9.66666 9.59855 9.66666 9.33333C9.66666 9.06812 9.77202 8.81376 9.95956 8.62623C10.1471 8.43869 10.4014 8.33333 10.6667 8.33333H21.3333C21.5985 8.33333 21.8529 8.43869 22.0404 8.62623C22.228 8.81376 22.3333 9.06812 22.3333 9.33333C22.3333 9.59855 22.228 9.8529 22.0404 10.0404C21.8529 10.228 21.5985 10.3333 21.3333 10.3333H10.6667Z" fill="#208DF5"/>
</svg>